<mxfile host="65bd71144e">
    <diagram id="SOe3oX7t8fKN32BXFXAG" name="Страница 1">
        <mxGraphModel dx="478" dy="331" grid="1" gridSize="10" guides="1" tooltips="1" connect="1" arrows="1" fold="1" page="1" pageScale="1" pageWidth="827" pageHeight="1169" math="0" shadow="0">
            <root>
                <mxCell id="0"/>
                <mxCell id="1" parent="0"/>
                <mxCell id="lc6Q-tdxeympkWHvySw1-5" value="REST" style="edgeStyle=orthogonalEdgeStyle;rounded=0;orthogonalLoop=1;jettySize=auto;html=1;" parent="1" source="lc6Q-tdxeympkWHvySw1-1" target="lc6Q-tdxeympkWHvySw1-2" edge="1">
                    <mxGeometry relative="1" as="geometry"/>
                </mxCell>
                <mxCell id="lc6Q-tdxeympkWHvySw1-1" value="UI" style="whiteSpace=wrap;html=1;aspect=fixed;" parent="1" vertex="1">
                    <mxGeometry x="90" y="300" width="80" height="80" as="geometry"/>
                </mxCell>
                <mxCell id="lc6Q-tdxeympkWHvySw1-16" style="edgeStyle=orthogonalEdgeStyle;rounded=0;orthogonalLoop=1;jettySize=auto;html=1;entryX=0.5;entryY=1;entryDx=0;entryDy=0;" parent="1" source="lc6Q-tdxeympkWHvySw1-2" target="lc6Q-tdxeympkWHvySw1-3" edge="1">
                    <mxGeometry relative="1" as="geometry">
                        <mxPoint x="440" y="180" as="targetPoint"/>
                    </mxGeometry>
                </mxCell>
                <mxCell id="lc6Q-tdxeympkWHvySw1-17" value="REST" style="edgeLabel;html=1;align=center;verticalAlign=middle;resizable=0;points=[];" parent="lc6Q-tdxeympkWHvySw1-16" vertex="1" connectable="0">
                    <mxGeometry x="0.3111" y="-2" relative="1" as="geometry">
                        <mxPoint as="offset"/>
                    </mxGeometry>
                </mxCell>
                <mxCell id="lc6Q-tdxeympkWHvySw1-26" value="REST" style="edgeStyle=orthogonalEdgeStyle;rounded=0;orthogonalLoop=1;jettySize=auto;html=1;entryX=1;entryY=0.5;entryDx=0;entryDy=0;exitX=0;exitY=0.25;exitDx=0;exitDy=0;" parent="1" source="lc6Q-tdxeympkWHvySw1-2" target="lc6Q-tdxeympkWHvySw1-23" edge="1">
                    <mxGeometry relative="1" as="geometry"/>
                </mxCell>
                <mxCell id="lc6Q-tdxeympkWHvySw1-2" value="CORE&lt;br&gt;WebApi" style="whiteSpace=wrap;html=1;aspect=fixed;" parent="1" vertex="1">
                    <mxGeometry x="350" y="250" width="180" height="180" as="geometry"/>
                </mxCell>
                <mxCell id="lc6Q-tdxeympkWHvySw1-3" value="Микросервис&lt;br&gt;Поиск&lt;br&gt;&lt;br&gt;" style="whiteSpace=wrap;html=1;aspect=fixed;" parent="1" vertex="1">
                    <mxGeometry x="400" y="80" width="80" height="80" as="geometry"/>
                </mxCell>
                <mxCell id="lc6Q-tdxeympkWHvySw1-12" value="CACHE&lt;br&gt;Redis" style="whiteSpace=wrap;html=1;aspect=fixed;" parent="1" vertex="1">
                    <mxGeometry x="415" y="45" width="50" height="50" as="geometry"/>
                </mxCell>
                <mxCell id="5e0fAKMC21AEf0_VB2kZ-11" value="" style="edgeStyle=orthogonalEdgeStyle;rounded=0;orthogonalLoop=1;jettySize=auto;html=1;" parent="1" source="lc6Q-tdxeympkWHvySw1-20" target="5e0fAKMC21AEf0_VB2kZ-10" edge="1">
                    <mxGeometry relative="1" as="geometry"/>
                </mxCell>
                <mxCell id="5e0fAKMC21AEf0_VB2kZ-20" style="edgeStyle=orthogonalEdgeStyle;rounded=0;orthogonalLoop=1;jettySize=auto;html=1;entryX=0;entryY=0.75;entryDx=0;entryDy=0;exitX=0.5;exitY=0;exitDx=0;exitDy=0;" parent="1" source="lc6Q-tdxeympkWHvySw1-20" target="lc6Q-tdxeympkWHvySw1-27" edge="1">
                    <mxGeometry relative="1" as="geometry"/>
                </mxCell>
                <mxCell id="5e0fAKMC21AEf0_VB2kZ-22" value="AMQP" style="edgeLabel;html=1;align=center;verticalAlign=middle;resizable=0;points=[];" parent="5e0fAKMC21AEf0_VB2kZ-20" vertex="1" connectable="0">
                    <mxGeometry x="0.1692" y="-1" relative="1" as="geometry">
                        <mxPoint as="offset"/>
                    </mxGeometry>
                </mxCell>
                <mxCell id="lc6Q-tdxeympkWHvySw1-20" value="Микросервис:&lt;br&gt;Пользователь&lt;br&gt;(User)" style="whiteSpace=wrap;html=1;aspect=fixed;" parent="1" vertex="1">
                    <mxGeometry x="230" y="620" width="90" height="90" as="geometry"/>
                </mxCell>
                <mxCell id="lc6Q-tdxeympkWHvySw1-30" value="AMQP" style="edgeStyle=orthogonalEdgeStyle;rounded=0;orthogonalLoop=1;jettySize=auto;html=1;entryX=1.009;entryY=0.111;entryDx=0;entryDy=0;entryPerimeter=0;" parent="1" source="lc6Q-tdxeympkWHvySw1-21" target="lc6Q-tdxeympkWHvySw1-27" edge="1">
                    <mxGeometry relative="1" as="geometry"/>
                </mxCell>
                <mxCell id="5e0fAKMC21AEf0_VB2kZ-25" style="edgeStyle=orthogonalEdgeStyle;rounded=0;orthogonalLoop=1;jettySize=auto;html=1;exitX=0.5;exitY=0;exitDx=0;exitDy=0;entryX=0.5;entryY=1;entryDx=0;entryDy=0;" parent="1" source="lc6Q-tdxeympkWHvySw1-21" target="5e0fAKMC21AEf0_VB2kZ-17" edge="1">
                    <mxGeometry relative="1" as="geometry"/>
                </mxCell>
                <mxCell id="lc6Q-tdxeympkWHvySw1-21" value="&lt;span&gt;Микросервис:&lt;br&gt;Продукта?&lt;br&gt;(Offers)&lt;br&gt;&lt;/span&gt;" style="whiteSpace=wrap;html=1;aspect=fixed;" parent="1" vertex="1">
                    <mxGeometry x="630" y="400" width="90" height="90" as="geometry"/>
                </mxCell>
                <mxCell id="lc6Q-tdxeympkWHvySw1-31" value="AMQP" style="edgeStyle=orthogonalEdgeStyle;rounded=0;orthogonalLoop=1;jettySize=auto;html=1;exitX=0.5;exitY=0;exitDx=0;exitDy=0;" parent="1" source="lc6Q-tdxeympkWHvySw1-22" edge="1">
                    <mxGeometry x="0.2836" relative="1" as="geometry">
                        <mxPoint as="offset"/>
                        <mxPoint x="480" y="520" as="targetPoint"/>
                        <Array as="points">
                            <mxPoint x="765" y="520"/>
                            <mxPoint x="480" y="520"/>
                        </Array>
                    </mxGeometry>
                </mxCell>
                <mxCell id="lc6Q-tdxeympkWHvySw1-22" value="&lt;span&gt;Микросервис:&lt;br&gt;Статистик, рейтинг?&lt;br&gt;(v2)&lt;br&gt;&lt;/span&gt;" style="whiteSpace=wrap;html=1;aspect=fixed;" parent="1" vertex="1">
                    <mxGeometry x="720" y="620" width="90" height="90" as="geometry"/>
                </mxCell>
                <mxCell id="26" style="html=1;" edge="1" parent="1" source="lc6Q-tdxeympkWHvySw1-23" target="lc6Q-tdxeympkWHvySw1-1">
                    <mxGeometry relative="1" as="geometry"/>
                </mxCell>
                <mxCell id="27" value="Авторизация" style="edgeLabel;html=1;align=center;verticalAlign=middle;resizable=0;points=[];" vertex="1" connectable="0" parent="26">
                    <mxGeometry x="-0.0997" relative="1" as="geometry">
                        <mxPoint as="offset"/>
                    </mxGeometry>
                </mxCell>
                <mxCell id="lc6Q-tdxeympkWHvySw1-23" value="IdentityServer4" style="whiteSpace=wrap;html=1;aspect=fixed;" parent="1" vertex="1">
                    <mxGeometry x="160" y="100" width="110" height="110" as="geometry"/>
                </mxCell>
                <mxCell id="lc6Q-tdxeympkWHvySw1-32" style="edgeStyle=orthogonalEdgeStyle;rounded=0;orthogonalLoop=1;jettySize=auto;html=1;" parent="1" source="lc6Q-tdxeympkWHvySw1-27" target="lc6Q-tdxeympkWHvySw1-2" edge="1">
                    <mxGeometry relative="1" as="geometry"/>
                </mxCell>
                <mxCell id="lc6Q-tdxeympkWHvySw1-33" value="AMQP" style="edgeLabel;html=1;align=center;verticalAlign=middle;resizable=0;points=[];" parent="lc6Q-tdxeympkWHvySw1-32" vertex="1" connectable="0">
                    <mxGeometry x="0.1" y="4" relative="1" as="geometry">
                        <mxPoint x="4" as="offset"/>
                    </mxGeometry>
                </mxCell>
                <mxCell id="lc6Q-tdxeympkWHvySw1-27" value="Брокер&lt;br&gt;сообщений" style="whiteSpace=wrap;html=1;aspect=fixed;" parent="1" vertex="1">
                    <mxGeometry x="400" y="490" width="80" height="80" as="geometry"/>
                </mxCell>
                <mxCell id="lc6Q-tdxeympkWHvySw1-37" style="edgeStyle=orthogonalEdgeStyle;rounded=0;orthogonalLoop=1;jettySize=auto;html=1;entryX=0;entryY=0.75;entryDx=0;entryDy=0;" parent="1" source="lc6Q-tdxeympkWHvySw1-36" target="lc6Q-tdxeympkWHvySw1-2" edge="1">
                    <mxGeometry relative="1" as="geometry"/>
                </mxCell>
                <mxCell id="lc6Q-tdxeympkWHvySw1-38" value="REST" style="edgeLabel;html=1;align=center;verticalAlign=middle;resizable=0;points=[];" parent="lc6Q-tdxeympkWHvySw1-37" vertex="1" connectable="0">
                    <mxGeometry x="0.034" y="-2" relative="1" as="geometry">
                        <mxPoint as="offset"/>
                    </mxGeometry>
                </mxCell>
                <mxCell id="lc6Q-tdxeympkWHvySw1-36" value="XAMARIN&lt;br&gt;(v2)" style="whiteSpace=wrap;html=1;aspect=fixed;" parent="1" vertex="1">
                    <mxGeometry x="90" y="410" width="80" height="80" as="geometry"/>
                </mxCell>
                <mxCell id="5e0fAKMC21AEf0_VB2kZ-21" style="edgeStyle=orthogonalEdgeStyle;rounded=0;orthogonalLoop=1;jettySize=auto;html=1;exitX=0.419;exitY=-0.003;exitDx=0;exitDy=0;exitPerimeter=0;" parent="1" source="5e0fAKMC21AEf0_VB2kZ-1" edge="1">
                    <mxGeometry relative="1" as="geometry">
                        <mxPoint x="400" y="510" as="targetPoint"/>
                        <Array as="points">
                            <mxPoint x="48" y="510"/>
                        </Array>
                        <mxPoint x="100" y="590" as="sourcePoint"/>
                    </mxGeometry>
                </mxCell>
                <mxCell id="5e0fAKMC21AEf0_VB2kZ-23" value="AMQP" style="edgeLabel;html=1;align=center;verticalAlign=middle;resizable=0;points=[];" parent="5e0fAKMC21AEf0_VB2kZ-21" vertex="1" connectable="0">
                    <mxGeometry x="0.1792" y="2" relative="1" as="geometry">
                        <mxPoint as="offset"/>
                    </mxGeometry>
                </mxCell>
                <mxCell id="5e0fAKMC21AEf0_VB2kZ-1" value="Микросервис:&lt;br&gt;Работы ЭЦП?&lt;br&gt;(v2)" style="whiteSpace=wrap;html=1;aspect=fixed;" parent="1" vertex="1">
                    <mxGeometry x="10" y="620" width="90" height="90" as="geometry"/>
                </mxCell>
                <mxCell id="5e0fAKMC21AEf0_VB2kZ-19" style="edgeStyle=orthogonalEdgeStyle;rounded=0;orthogonalLoop=1;jettySize=auto;html=1;startArrow=none;" parent="1" source="11" target="5e0fAKMC21AEf0_VB2kZ-17" edge="1">
                    <mxGeometry relative="1" as="geometry"/>
                </mxCell>
                <mxCell id="5e0fAKMC21AEf0_VB2kZ-4" value="Elastic" style="whiteSpace=wrap;html=1;aspect=fixed;" parent="1" vertex="1">
                    <mxGeometry x="550" y="95" width="50" height="50" as="geometry"/>
                </mxCell>
                <mxCell id="5e0fAKMC21AEf0_VB2kZ-10" value="DB&lt;br&gt;Postgress" style="whiteSpace=wrap;html=1;" parent="1" vertex="1">
                    <mxGeometry x="222.5" y="770" width="105" height="80" as="geometry"/>
                </mxCell>
                <mxCell id="5e0fAKMC21AEf0_VB2kZ-14" value="" style="edgeStyle=orthogonalEdgeStyle;rounded=0;orthogonalLoop=1;jettySize=auto;html=1;" parent="1" source="5e0fAKMC21AEf0_VB2kZ-12" target="5e0fAKMC21AEf0_VB2kZ-13" edge="1">
                    <mxGeometry relative="1" as="geometry"/>
                </mxCell>
                <mxCell id="5e0fAKMC21AEf0_VB2kZ-15" style="edgeStyle=orthogonalEdgeStyle;rounded=0;orthogonalLoop=1;jettySize=auto;html=1;entryX=0.5;entryY=1;entryDx=0;entryDy=0;exitX=0.5;exitY=0;exitDx=0;exitDy=0;" parent="1" source="5e0fAKMC21AEf0_VB2kZ-12" target="lc6Q-tdxeympkWHvySw1-27" edge="1">
                    <mxGeometry relative="1" as="geometry"/>
                </mxCell>
                <mxCell id="5e0fAKMC21AEf0_VB2kZ-16" value="AMQP" style="edgeLabel;html=1;align=center;verticalAlign=middle;resizable=0;points=[];" parent="5e0fAKMC21AEf0_VB2kZ-15" vertex="1" connectable="0">
                    <mxGeometry x="-0.4514" y="4" relative="1" as="geometry">
                        <mxPoint x="4" y="-14" as="offset"/>
                    </mxGeometry>
                </mxCell>
                <mxCell id="5e0fAKMC21AEf0_VB2kZ-12" value="&lt;span&gt;Микросервис:&lt;br&gt;Корзина&lt;br&gt;(Reserves)&lt;br&gt;&lt;/span&gt;" style="whiteSpace=wrap;html=1;aspect=fixed;" parent="1" vertex="1">
                    <mxGeometry x="395" y="620" width="90" height="90" as="geometry"/>
                </mxCell>
                <mxCell id="5e0fAKMC21AEf0_VB2kZ-13" value="DB&lt;br&gt;Postgress" style="whiteSpace=wrap;html=1;" parent="1" vertex="1">
                    <mxGeometry x="395" y="770" width="90" height="80" as="geometry"/>
                </mxCell>
                <mxCell id="5e0fAKMC21AEf0_VB2kZ-17" value="DB&lt;br&gt;Postgress" style="whiteSpace=wrap;html=1;" parent="1" vertex="1">
                    <mxGeometry x="625" y="270" width="100" height="80" as="geometry"/>
                </mxCell>
                <mxCell id="8" value="" style="edgeStyle=orthogonalEdgeStyle;rounded=0;orthogonalLoop=1;jettySize=auto;html=1;entryX=0;entryY=0.5;entryDx=0;entryDy=0;" parent="1" source="lc6Q-tdxeympkWHvySw1-3" target="5e0fAKMC21AEf0_VB2kZ-4" edge="1">
                    <mxGeometry relative="1" as="geometry">
                        <mxPoint x="590" y="270" as="sourcePoint"/>
                        <mxPoint x="510" y="130" as="targetPoint"/>
                    </mxGeometry>
                </mxCell>
                <mxCell id="11" value="logstash" style="whiteSpace=wrap;html=1;aspect=fixed;" parent="1" vertex="1">
                    <mxGeometry x="650" y="95" width="50" height="50" as="geometry"/>
                </mxCell>
                <mxCell id="12" value="" style="edgeStyle=orthogonalEdgeStyle;rounded=0;orthogonalLoop=1;jettySize=auto;html=1;endArrow=none;" parent="1" source="5e0fAKMC21AEf0_VB2kZ-4" target="11" edge="1">
                    <mxGeometry relative="1" as="geometry">
                        <mxPoint x="600" y="120" as="sourcePoint"/>
                        <mxPoint x="675" y="270" as="targetPoint"/>
                    </mxGeometry>
                </mxCell>
                <mxCell id="14" style="edgeStyle=none;html=1;entryX=1;entryY=0.75;entryDx=0;entryDy=0;" parent="1" source="13" target="lc6Q-tdxeympkWHvySw1-27" edge="1">
                    <mxGeometry relative="1" as="geometry">
                        <Array as="points">
                            <mxPoint x="545" y="550"/>
                        </Array>
                    </mxGeometry>
                </mxCell>
                <mxCell id="15" value="AMQP" style="edgeLabel;html=1;align=center;verticalAlign=middle;resizable=0;points=[];" parent="14" vertex="1" connectable="0">
                    <mxGeometry x="-0.0838" relative="1" as="geometry">
                        <mxPoint as="offset"/>
                    </mxGeometry>
                </mxCell>
                <mxCell id="13" value="&lt;span&gt;Микросервис:&lt;br&gt;Адресов&lt;br&gt;(Location)&lt;br&gt;&lt;/span&gt;" style="whiteSpace=wrap;html=1;aspect=fixed;" parent="1" vertex="1">
                    <mxGeometry x="500" y="620" width="90" height="90" as="geometry"/>
                </mxCell>
                <mxCell id="16" value="DB&lt;br&gt;Postgress" style="whiteSpace=wrap;html=1;" vertex="1" parent="1">
                    <mxGeometry x="560" y="770" width="90" height="80" as="geometry"/>
                </mxCell>
                <mxCell id="18" value="Микросервис:&lt;br&gt;Организации&lt;br&gt;(Organization)" style="whiteSpace=wrap;html=1;aspect=fixed;" vertex="1" parent="1">
                    <mxGeometry x="120" y="620" width="90" height="90" as="geometry"/>
                </mxCell>
                <mxCell id="20" style="edgeStyle=none;html=1;entryX=0;entryY=0.5;entryDx=0;entryDy=0;" edge="1" parent="1" source="18" target="lc6Q-tdxeympkWHvySw1-27">
                    <mxGeometry relative="1" as="geometry">
                        <mxPoint x="210" y="639.1489361702127" as="sourcePoint"/>
                        <mxPoint x="400" y="530" as="targetPoint"/>
                        <Array as="points">
                            <mxPoint x="165" y="530"/>
                        </Array>
                    </mxGeometry>
                </mxCell>
                <mxCell id="21" value="AMQP" style="edgeLabel;html=1;align=center;verticalAlign=middle;resizable=0;points=[];" vertex="1" connectable="0" parent="20">
                    <mxGeometry x="-0.0538" y="-1" relative="1" as="geometry">
                        <mxPoint as="offset"/>
                    </mxGeometry>
                </mxCell>
                <mxCell id="22" value="&lt;span&gt;Микросервис:&lt;br&gt;Уведомлений&lt;br&gt;(v2)&lt;br&gt;&lt;/span&gt;" style="whiteSpace=wrap;html=1;aspect=fixed;" vertex="1" parent="1">
                    <mxGeometry x="610" y="620" width="90" height="90" as="geometry"/>
                </mxCell>
                <mxCell id="24" style="edgeStyle=none;html=1;entryX=1.02;entryY=0.607;entryDx=0;entryDy=0;entryPerimeter=0;" edge="1" parent="1" source="22" target="lc6Q-tdxeympkWHvySw1-27">
                    <mxGeometry relative="1" as="geometry">
                        <mxPoint x="610.0000000000001" y="632.1868512110726" as="sourcePoint"/>
                        <mxPoint x="481.6" y="538.5600000000001" as="targetPoint"/>
                        <Array as="points">
                            <mxPoint x="655" y="539"/>
                        </Array>
                    </mxGeometry>
                </mxCell>
                <mxCell id="25" value="AMQP" style="edgeLabel;html=1;align=center;verticalAlign=middle;resizable=0;points=[];" vertex="1" connectable="0" parent="24">
                    <mxGeometry x="-0.0906" relative="1" as="geometry">
                        <mxPoint as="offset"/>
                    </mxGeometry>
                </mxCell>
            </root>
        </mxGraphModel>
    </diagram>
</mxfile>